:FULLY-SPECIFIED
:FORCE-ALL-JOINTS-BE-3DOF
:DEGREES
204
root -2.90033 16.3091 -36.1129 3.7832 0.646692 -2.93596
lfemur -23.9131 6.6822 -8.24857
ltibia 48.5871 0 0
lfoot -23.766 0.372062 0
ltoes -9.84745 0 0
rfemur -23.7696 -7.48799 14.6514
rtibia 50.7536 0 0
rfoot -27.6007 2.12975 0
rtoes -8.47024 0 0
lowerback 7.29953 1.94784 -1.69821
upperback -3.76634 2.53149 1.31599
thorax -8.21056 1.37118 1.97961
lowerneck -3.36742 -3.89976 -6.58543
upperneck 6.88593 -5.26827 6.06024
head 3.23667 -2.59453 2.98086
lclavicle -9.2318e-15 -6.96777e-15 0
lhumerus -26.5255 -1.86623 88.8427
lradius 24.3509 0 0
lwrist -31.2868 0 0
lhand -28.2901 30.0255 0
lfingers 7.12502 0 0
lthumb -1.63693 60.158 0
rclavicle 9.37083e-15 8.94531e-16 0
rhumerus -32.2201 2.00684 -79.9423
rradius 30.3041 0 0
rwrist 3.16804 0 0
rhand -19.9383 -26.9131 0
rfingers 7.12502 0 0
rthumb 6.51106 -56.8901 0
205
root -2.90076 16.3075 -36.1111 3.77155 0.653511 -2.90154
lfemur -23.9254 6.69034 -8.24409
ltibia 48.6326 0 0
lfoot -23.7982 0.360962 0
ltoes -9.84752 0 0
rfemur -23.7762 -7.50811 14.6492
rtibia 50.7908 0 0
rfoot -27.6083 2.1216 0
rtoes -8.49971 0 0
lowerback 7.29923 1.95169 -1.72821
upperback -3.75822 2.53231 1.30223
thorax -8.20242 1.37263 1.98192
lowerneck -3.42443 -3.90966 -6.55163
upperneck 6.92512 -5.27961 6.02983
head 3.25922 -2.59935 2.96279
lclavicle -9.12856e-15 -6.95746e-15 0
lhumerus -26.5121 -1.88131 88.8592
lradius 24.359 0 0
lwrist -31.2847 0 0
lhand -28.2951 30.0157 0
lfingers 7.12502 0 0
lthumb -1.6417 60.1461 0
rclavicle 9.4079e-15 9.15911e-16 0
rhumerus -32.2187 2.00814 -79.9437
rradius 30.2944 0 0
rwrist 3.17397 0 0
rhand -19.9407 -26.9193 0
rfingers 7.12502 0 0
rthumb 6.51418 -56.9004 0
206
root -2.90138 16.305 -36.1106 3.76868 0.66911 -2.9246
lfemur -23.938 6.69876 -8.23945
ltibia 48.6816 0 0
lfoot -23.831 0.349674 0
ltoes -9.84771 0 0
rfemur -23.7828 -7.52813 14.6469
rtibia 50.8213 0 0
rfoot -27.6204 2.10866 0
rtoes -8.52691 0 0
lowerback 7.29131 1.95374 -1.69565
upperback -3.74773 2.53866 1.30361
thorax -8.18527 1.37379 1.96455
lowerneck -3.43602 -3.91994 -6.54011
upperneck 6.9053 -5.29236 6.02499
head 3.25484 -2.60532 2.95808
lclavicle -9.02445e-15 -6.90723e-15 0
lhumerus -26.4998 -1.8953 88.8745
lradius 24.3664 0 0
lwrist -31.2829 0 0
lhand -28.3001 30.0058 0
lfingers 7.12502 0 0
lthumb -1.64654 60.1341 0
rclavicle 9.51575e-15 9.78109e-16 0
rhumerus -32.2188 2.00696 -79.9424
rradius 30.2845 0 0
rwrist 3.18121 0 0
rhand -19.9435 -26.9261 0
rfingers 7.12502 0 0
rthumb 6.51687 -56.9092 0
207
root -2.90215 16.303 -36.1086 3.76247 0.674298 -2.90984
lfemur -23.951 6.70735 -8.23473
ltibia 48.7329 0 0
lfoot -23.8638 0.338387 0
ltoes -9.84803 0 0
rfemur -23.7892 -7.54781 14.6446
rtibia 50.844 0 0
rfoot -27.6366 2.09147 0
rtoes -8.55153 0 0
lowerback 7.27704 1.94759 -1.7196
upperback -3.74702 2.52857 1.31085
thorax -8.17719 1.37036 1.98757
lowerneck -3.44052 -3.89992 -6.56686
upperneck 6.92316 -5.26432 6.02696
head 3.261 -2.59202 2.9652
lclavicle -8.7219e-15 -6.76128e-15 0
lhumerus -26.4885 -1.90802 88.8885
lradius 24.3729 0 0
lwrist -31.2814 0 0
lhand -28.305 29.9961 0
lfingers 7.12502 0 0
lthumb -1.65138 60.122 0
rclavicle 9.68931e-15 1.07821e-15 0
rhumerus -32.219 2.00357 -79.9388
rradius 30.2744 0 0
rwrist 3.18958 0 0
rhand -19.9464 -26.9335 0
rfingers 7.12502 0 0
rthumb 6.51906 -56.9164 0
208
root -2.90299 16.3002 -36.1078 3.75868 0.677291 -2.90975
lfemur -23.9639 6.71599 -8.22997
ltibia 48.7857 0 0
lfoot -23.896 0.327287 0
ltoes -9.84845 0 0
rfemur -23.7955 -7.56694 14.6425
rtibia 50.8583 0 0
rfoot -27.6562 2.07056 0
rtoes -8.57326 0 0
lowerback 7.25548 1.95376 -1.71619
upperback -3.74281 2.53732 1.30924
thorax -8.16028 1.37427 1.98339
lowerneck -3.38995 -3.9138 -6.5566
upperneck 6.88388 -5.28408 6.01499
head 3.23828 -2.60267 2.95858
lclavicle -8.23562e-15 -6.52668e-15 0
lhumerus -26.4786 -1.91928 88.9008
lradius 24.3782 0 0
lwrist -31.2802 0 0
lhand -28.3098 29.9867 0
lfingers 7.12502 0 0
lthumb -1.65615 60.1101 0
rclavicle 9.92353e-15 1.21329e-15 0
rhumerus -32.2194 1.99819 -79.933
rradius 30.2644 0 0
rwrist 3.19891 0 0
rhand -19.9494 -26.9412 0
rfingers 7.12502 0 0
rthumb 6.5207 -56.9218 0
209
root -2.90209 16.2976 -36.1072 3.75247 0.707424 -2.92889
lfemur -23.9769 6.72458 -8.22525
ltibia 48.839 0 0
lfoot -23.9272 0.31656 0
ltoes -9.84896 0 0
rfemur -23.8015 -7.5853 14.6404
rtibia 50.8633 0 0
rfoot -27.6788 2.04646 0
rtoes -8.59175 0 0
lowerback 7.26468 1.94918 -1.66084
upperback -3.73773 2.53651 1.30386
thorax -8.15712 1.3706 1.94654
lowerneck -3.38798 -3.90834 -6.56409
upperneck 6.83762 -5.27652 6.03983
head 3.22278 -2.59832 2.96885
lclavicle -7.58031e-15 -6.21054e-15 0
lhumerus -26.4701 -1.9289 88.9113
lradius 24.3822 0 0
lwrist -31.2793 0 0
lhand -28.3145 29.9776 0
lfingers 7.12502 0 0
lthumb -1.66079 60.0985 0
rclavicle 1.02134e-14 1.38045e-15 0
rhumerus -32.22 1.99104 -79.9254
rradius 30.2545 0 0
rwrist 3.20902 0 0
rhand -19.9527 -26.9493 0
rfingers 7.12502 0 0
rthumb 6.52173 -56.9251 0
210
root -2.90262 16.2952 -36.1071 3.73029 0.73072 -2.92387
lfemur -23.9895 6.733 -8.22061
ltibia 48.8918 0 0
lfoot -23.9567 0.306395 0
ltoes -9.84955 0 0
rfemur -23.8072 -7.60266 14.6384
rtibia 50.8679 0 0
rfoot -27.7039 2.0197 0
rtoes -8.6067 0 0
lowerback 7.30819 1.95117 -1.6626
upperback -3.73344 2.5387 1.30679
thorax -8.17823 1.3719 1.94904
lowerneck -3.44255 -3.91591 -6.53726
upperneck 6.8696 -5.28226 5.98484
head 3.24117 -2.60136 2.9438
lclavicle -6.77067e-15 -5.81994e-15 0
lhumerus -26.4632 -1.9367 88.9198
lradius 24.3848 0 0
lwrist -31.2787 0 0
lhand -28.3189 29.9689 0
lfingers 7.12502 0 0
lthumb -1.66522 60.0874 0
rclavicle 1.05537e-14 1.57676e-15 0
rhumerus -32.2206 1.98235 -79.916
rradius 30.2448 0 0
rwrist 3.21974 0 0
rhand -19.956 -26.9577 0
rfingers 7.12502 0 0
rthumb 6.52208 -56.9263 0
211
root -2.90343 16.2931 -36.1061 3.70836 0.741095 -2.95548
lfemur -24.0018 6.74114 -8.21613
ltibia 48.9431 0 0
lfoot -23.9841 0.296979 0
ltoes -9.85022 0 0
rfemur -23.8125 -7.61881 14.6366
rtibia 50.8812 0 0
rfoot -27.731 1.99081 0
rtoes -8.61777 0 0
lowerback 7.31817 1.96043 -1.6306
upperback -3.72515 2.55495 1.3143
thorax -8.17475 1.37822 1.93645
lowerneck -3.4221 -3.92503 -6.54924
upperneck 6.84681 -5.29579 6.00728
head 3.23186 -2.60798 2.95339
lclavicle -5.82139e-15 -5.36198e-15 0
lhumerus -26.4581 -1.94249 88.9262
lradius 24.3857 0 0
lwrist -31.2785 0 0
lhand -28.323 29.9607 0
lfingers 7.12502 0 0
lthumb -1.66939 60.077 0
rclavicle 1.09396e-14 1.79931e-15 0
rhumerus -32.2213 1.97233 -79.9053
rradius 30.2353 0 0
rwrist 3.2309 0 0
rhand -19.9593 -26.9661 0
rfingers 7.12502 0 0
rthumb 6.52168 -56.9259 0
212
root -2.90318 16.2904 -36.1055 3.68549 0.769323 -2.95528
lfemur -24.0134 6.7489 -8.21186
ltibia 48.9921 0 0
lfoot -24.0087 0.288498 0
ltoes -9.85094 0 0
rfemur -23.8173 -7.63352 14.6349
rtibia 50.902 0 0
rfoot -27.7596 1.96032 0
rtoes -8.62465 0 0
lowerback 7.34507 1.94327 -1.62025
upperback -3.70781 2.53292 1.3186
thorax -8.1703 1.36678 1.93785
lowerneck -3.50007 -3.92335 -6.54557
upperneck 6.88107 -5.29015 6.00088
head 3.25775 -2.60411 2.94992
lclavicle -4.74717e-15 -4.84375e-15 0
lhumerus -26.4549 -1.94611 88.9301
lradius 24.3854 0 0
lwrist -31.2789 0 0
lhand -28.3269 29.9531 0
lfingers 7.12502 0 0
lthumb -1.67322 60.0675 0
rclavicle 1.13659e-14 2.04519e-15 0
rhumerus -32.2222 1.9612 -79.8934
rradius 30.2262 0 0
rwrist 3.24232 0 0
rhand -19.9627 -26.9747 0
rfingers 7.12502 0 0
rthumb 6.52051 -56.9247 0
